<svg xmlns="http://www.w3.org/2000/svg" viewBox="0 0 256 256" width="1024" height="1024" role="img" aria-labelledby="title desc">
  <title id="title">hapa-keys-node node card icon</title>
  <desc id="desc">card icon for hapa-keys-node (existing_node). Category: security. Symbol: key.</desc>
  <defs>
    <radialGradient id="bg" cx="50%" cy="43%" r="68%">
      <stop offset="0%" stop-color="#0f2742"/>
      <stop offset="55%" stop-color="#07111f"/>
      <stop offset="100%" stop-color="#020617"/>
    </radialGradient>
    <linearGradient id="rim" x1="0" x2="1" y1="0" y2="1">
      <stop offset="0%" stop-color="#34d399"/>
      <stop offset="52%" stop-color="#22d3ee"/>
      <stop offset="100%" stop-color="hsl(121 88% 62%)"/>
    </linearGradient>
    <filter id="glow" x="-40%" y="-40%" width="180%" height="180%">
      <feGaussianBlur stdDeviation="3.2" result="blur"/>
      <feColorMatrix in="blur" type="matrix" values="0 0 0 0 0.1 0 0 0 0 0.8 0 0 0 0 1 0 0 0 .9 0" result="blueGlow"/>
      <feMerge><feMergeNode in="blueGlow"/><feMergeNode in="SourceGraphic"/></feMerge>
    </filter>
    <pattern id="grid" width="24" height="24" patternUnits="userSpaceOnUse">
      <path d="M24 0H0v24" fill="none" stroke="#38bdf8" stroke-opacity=".08" stroke-width="1"/>
    </pattern>
  </defs>
  <rect x="18" y="18" width="220" height="220" rx="32" fill="url(#bg)"/>
  <rect x="18" y="18" width="220" height="220" rx="32" fill="url(#grid)" opacity=".7"/>
  <rect x="23" y="23" width="210" height="210" rx="27" fill="none" stroke="url(#rim)" stroke-width="3" opacity=".86"/>
  <circle cx="128" cy="128" r="93" fill="none" stroke="#34d399" stroke-width="2" stroke-dasharray="2 9" opacity=".4"/>
  <circle cx="200.8" cy="185.9" r="3.4" fill="#fb7185" opacity=".75"/><circle cx="146.5" cy="219.1" r="3.4" fill="#fb7185" opacity=".75"/><circle cx="83.6" cy="209.7" r="3.4" fill="#fb7185" opacity=".75"/><circle cx="41.5" cy="162.1" r="3.4" fill="#fb7185" opacity=".75"/><circle cx="39.8" cy="98.5" r="3.4" fill="#fb7185" opacity=".75"/><circle cx="79.4" cy="48.7" r="3.4" fill="#fb7185" opacity=".75"/><circle cx="141.8" cy="36.0" r="3.4" fill="#fb7185" opacity=".75"/><circle cx="197.7" cy="66.4" r="3.4" fill="#fb7185" opacity=".75"/><circle cx="221.0" cy="125.6" r="3.4" fill="#fb7185" opacity=".75"/>
  <g filter="url(#glow)">
        <circle cx="88" cy="112" r="34" fill="none" stroke="#34d399" stroke-width="10"/>
        <path d="M118 112h72m-24 0v29m-24-29v20" fill="none" stroke="#34d399" stroke-width="12" stroke-linecap="round" stroke-linejoin="round"/>
        <circle cx="88" cy="112" r="9" fill="#22d3ee"/>
        </g>
  
        <path d="M42 210h172" stroke="#34d399" stroke-width="4" stroke-linecap="round" opacity=".65"/>
        <circle cx="84" cy="210" r="5" fill="#34d399"/><circle cx="128" cy="210" r="5" fill="#22d3ee"/><circle cx="172" cy="210" r="5" fill="hsl(121 88% 62%)"/>
        
</svg>