<svg xmlns="http://www.w3.org/2000/svg" viewBox="0 0 256 256" width="256" height="256" role="img" aria-labelledby="title desc">
  <title id="title">hapa-spec-scaffold node glyph icon</title>
  <desc id="desc">glyph icon for hapa-spec-scaffold (existing_node). Category: docs. Symbol: book.</desc>
  <defs>
    <radialGradient id="bg" cx="50%" cy="43%" r="68%">
      <stop offset="0%" stop-color="#0f2742"/>
      <stop offset="55%" stop-color="#07111f"/>
      <stop offset="100%" stop-color="#020617"/>
    </radialGradient>
    <linearGradient id="rim" x1="0" x2="1" y1="0" y2="1">
      <stop offset="0%" stop-color="#93c5fd"/>
      <stop offset="52%" stop-color="#fbbf24"/>
      <stop offset="100%" stop-color="hsl(83 88% 62%)"/>
    </linearGradient>
    <filter id="glow" x="-40%" y="-40%" width="180%" height="180%">
      <feGaussianBlur stdDeviation="3.2" result="blur"/>
      <feColorMatrix in="blur" type="matrix" values="0 0 0 0 0.1 0 0 0 0 0.8 0 0 0 0 1 0 0 0 .9 0" result="blueGlow"/>
      <feMerge><feMergeNode in="blueGlow"/><feMergeNode in="SourceGraphic"/></feMerge>
    </filter>
    <pattern id="grid" width="24" height="24" patternUnits="userSpaceOnUse">
      <path d="M24 0H0v24" fill="none" stroke="#38bdf8" stroke-opacity=".08" stroke-width="1"/>
    </pattern>
  </defs>
  <rect x="28" y="28" width="200" height="200" rx="44" fill="url(#bg)"/>
  <rect x="28" y="28" width="200" height="200" rx="44" fill="url(#grid)" opacity=".7"/>
  <rect x="33" y="33" width="190" height="190" rx="39" fill="none" stroke="url(#rim)" stroke-width="3" opacity=".86"/>
  <circle cx="128" cy="128" r="93" fill="none" stroke="#34d399" stroke-width="2" stroke-dasharray="2 9" opacity=".4"/>
  <circle cx="211.3" cy="169.4" r="3.4" fill="#22d3ee" opacity=".75"/><circle cx="171.1" cy="210.4" r="3.4" fill="#22d3ee" opacity=".75"/><circle cx="114.4" cy="220.0" r="3.4" fill="#22d3ee" opacity=".75"/><circle cx="62.9" cy="194.4" r="3.4" fill="#22d3ee" opacity=".75"/><circle cx="36.3" cy="143.5" r="3.4" fill="#22d3ee" opacity=".75"/><circle cx="44.7" cy="86.6" r="3.4" fill="#22d3ee" opacity=".75"/><circle cx="84.9" cy="45.6" r="3.4" fill="#22d3ee" opacity=".75"/><circle cx="141.6" cy="36.0" r="3.4" fill="#22d3ee" opacity=".75"/><circle cx="193.1" cy="61.6" r="3.4" fill="#22d3ee" opacity=".75"/><circle cx="219.7" cy="112.5" r="3.4" fill="#22d3ee" opacity=".75"/>
  <g filter="url(#glow)">
        <path d="M60 54h56c18 0 28 9 28 25v124c-8-9-18-13-31-13H60Z" fill="rgba(34,211,238,.08)" stroke="#93c5fd" stroke-width="8" stroke-linejoin="round"/>
        <path d="M144 79c0-16 10-25 28-25h24v136h-24c-13 0-23 4-28 13Z" fill="rgba(251,191,36,.08)" stroke="#93c5fd" stroke-width="8" stroke-linejoin="round"/>
        <path d="M80 91h42M80 122h42M166 91h22M166 122h22" stroke="#fbbf24" stroke-width="5" stroke-linecap="round" opacity=".8"/>
        </g>
  
</svg>