<svg xmlns="http://www.w3.org/2000/svg" viewBox="0 0 256 256" width="1024" height="1024" role="img" aria-labelledby="title desc">
  <title id="title">hapa-lance-node node card icon</title>
  <desc id="desc">card icon for hapa-lance-node (existing_node). Category: docs. Symbol: book.</desc>
  <defs>
    <radialGradient id="bg" cx="50%" cy="43%" r="68%">
      <stop offset="0%" stop-color="#0f2742"/>
      <stop offset="55%" stop-color="#07111f"/>
      <stop offset="100%" stop-color="#020617"/>
    </radialGradient>
    <linearGradient id="rim" x1="0" x2="1" y1="0" y2="1">
      <stop offset="0%" stop-color="#93c5fd"/>
      <stop offset="52%" stop-color="#fbbf24"/>
      <stop offset="100%" stop-color="hsl(172 88% 62%)"/>
    </linearGradient>
    <filter id="glow" x="-40%" y="-40%" width="180%" height="180%">
      <feGaussianBlur stdDeviation="3.2" result="blur"/>
      <feColorMatrix in="blur" type="matrix" values="0 0 0 0 0.1 0 0 0 0 0.8 0 0 0 0 1 0 0 0 .9 0" result="blueGlow"/>
      <feMerge><feMergeNode in="blueGlow"/><feMergeNode in="SourceGraphic"/></feMerge>
    </filter>
    <pattern id="grid" width="24" height="24" patternUnits="userSpaceOnUse">
      <path d="M24 0H0v24" fill="none" stroke="#38bdf8" stroke-opacity=".08" stroke-width="1"/>
    </pattern>
  </defs>
  <rect x="18" y="18" width="220" height="220" rx="32" fill="url(#bg)"/>
  <rect x="18" y="18" width="220" height="220" rx="32" fill="url(#grid)" opacity=".7"/>
  <rect x="23" y="23" width="210" height="210" rx="27" fill="none" stroke="url(#rim)" stroke-width="3" opacity=".86"/>
  <circle cx="128" cy="128" r="93" fill="none" stroke="#34d399" stroke-width="2" stroke-dasharray="2 9" opacity=".4"/>
  <circle cx="181.7" cy="203.9" r="3.4" fill="#22d3ee" opacity=".75"/><circle cx="112.3" cy="219.7" r="3.4" fill="#22d3ee" opacity=".75"/><circle cx="52.1" cy="181.7" r="3.4" fill="#22d3ee" opacity=".75"/><circle cx="36.3" cy="112.3" r="3.4" fill="#22d3ee" opacity=".75"/><circle cx="74.3" cy="52.1" r="3.4" fill="#22d3ee" opacity=".75"/><circle cx="143.7" cy="36.3" r="3.4" fill="#22d3ee" opacity=".75"/><circle cx="203.9" cy="74.3" r="3.4" fill="#22d3ee" opacity=".75"/><circle cx="219.7" cy="143.7" r="3.4" fill="#22d3ee" opacity=".75"/>
  <g filter="url(#glow)">
        <path d="M60 54h56c18 0 28 9 28 25v124c-8-9-18-13-31-13H60Z" fill="rgba(34,211,238,.08)" stroke="#93c5fd" stroke-width="8" stroke-linejoin="round"/>
        <path d="M144 79c0-16 10-25 28-25h24v136h-24c-13 0-23 4-28 13Z" fill="rgba(251,191,36,.08)" stroke="#93c5fd" stroke-width="8" stroke-linejoin="round"/>
        <path d="M80 91h42M80 122h42M166 91h22M166 122h22" stroke="#fbbf24" stroke-width="5" stroke-linecap="round" opacity=".8"/>
        </g>
  
        <path d="M42 210h172" stroke="#34d399" stroke-width="4" stroke-linecap="round" opacity=".65"/>
        <circle cx="84" cy="210" r="5" fill="#93c5fd"/><circle cx="128" cy="210" r="5" fill="#fbbf24"/><circle cx="172" cy="210" r="5" fill="hsl(172 88% 62%)"/>
        
</svg>