<svg xmlns="http://www.w3.org/2000/svg" viewBox="0 0 256 256" width="1024" height="1024" role="img" aria-labelledby="title desc">
  <title id="title">Hapa Drama Desktop node card icon</title>
  <desc id="desc">card icon for Hapa Drama Desktop (hapa_node). Category: default. Symbol: node.</desc>
  <defs>
    <radialGradient id="bg" cx="50%" cy="43%" r="68%">
      <stop offset="0%" stop-color="#0f2742"/>
      <stop offset="55%" stop-color="#07111f"/>
      <stop offset="100%" stop-color="#020617"/>
    </radialGradient>
    <linearGradient id="rim" x1="0" x2="1" y1="0" y2="1">
      <stop offset="0%" stop-color="#22d3ee"/>
      <stop offset="52%" stop-color="#fbbf24"/>
      <stop offset="100%" stop-color="hsl(91 88% 62%)"/>
    </linearGradient>
    <filter id="glow" x="-40%" y="-40%" width="180%" height="180%">
      <feGaussianBlur stdDeviation="3.2" result="blur"/>
      <feColorMatrix in="blur" type="matrix" values="0 0 0 0 0.1 0 0 0 0 0.8 0 0 0 0 1 0 0 0 .9 0" result="blueGlow"/>
      <feMerge><feMergeNode in="blueGlow"/><feMergeNode in="SourceGraphic"/></feMerge>
    </filter>
    <pattern id="grid" width="24" height="24" patternUnits="userSpaceOnUse">
      <path d="M24 0H0v24" fill="none" stroke="#38bdf8" stroke-opacity=".08" stroke-width="1"/>
    </pattern>
  </defs>
  <rect x="18" y="18" width="220" height="220" rx="32" fill="url(#bg)"/>
  <rect x="18" y="18" width="220" height="220" rx="32" fill="url(#grid)" opacity=".7"/>
  <rect x="23" y="23" width="210" height="210" rx="27" fill="none" stroke="url(#rim)" stroke-width="3" opacity=".86"/>
  <circle cx="128" cy="128" r="93" fill="none" stroke="#22d3ee" stroke-width="2" stroke-dasharray="2 9" opacity=".4"/>
  <circle cx="209.4" cy="173.0" r="3.4" fill="#e879f9" opacity=".75"/><circle cx="167.4" cy="212.3" r="3.4" fill="#e879f9" opacity=".75"/><circle cx="110.3" cy="219.3" r="3.4" fill="#e879f9" opacity=".75"/><circle cx="60.0" cy="191.5" r="3.4" fill="#e879f9" opacity=".75"/><circle cx="35.7" cy="139.4" r="3.4" fill="#e879f9" opacity=".75"/><circle cx="46.6" cy="83.0" r="3.4" fill="#e879f9" opacity=".75"/><circle cx="88.6" cy="43.7" r="3.4" fill="#e879f9" opacity=".75"/><circle cx="145.7" cy="36.7" r="3.4" fill="#e879f9" opacity=".75"/><circle cx="196.0" cy="64.5" r="3.4" fill="#e879f9" opacity=".75"/><circle cx="220.3" cy="116.6" r="3.4" fill="#e879f9" opacity=".75"/>
  <g filter="url(#glow)">
    <circle cx="128" cy="128" r="62" fill="rgba(34,211,238,.06)" stroke="#22d3ee" stroke-width="9"/>
    <circle cx="128" cy="128" r="18" fill="#fbbf24" opacity=".9"/>
    <path d="M128 43v36M128 177v36M43 128h36M177 128h36M67 67l26 26M163 163l26 26M189 67l-26 26M93 163l-26 26" stroke="#22d3ee" stroke-width="7" stroke-linecap="round" opacity=".75"/>
    </g>
  
        <path d="M42 210h172" stroke="#22d3ee" stroke-width="4" stroke-linecap="round" opacity=".65"/>
        <circle cx="84" cy="210" r="5" fill="#22d3ee"/><circle cx="128" cy="210" r="5" fill="#fbbf24"/><circle cx="172" cy="210" r="5" fill="hsl(91 88% 62%)"/>
        
</svg>