<svg xmlns="http://www.w3.org/2000/svg" viewBox="0 0 256 256" width="1024" height="1024" role="img" aria-labelledby="title desc">
  <title id="title">Hapa Cultivation Suite node card icon</title>
  <desc id="desc">card icon for Hapa Cultivation Suite (hapa_node). Category: media. Symbol: forge.</desc>
  <defs>
    <radialGradient id="bg" cx="50%" cy="43%" r="68%">
      <stop offset="0%" stop-color="#0f2742"/>
      <stop offset="55%" stop-color="#07111f"/>
      <stop offset="100%" stop-color="#020617"/>
    </radialGradient>
    <linearGradient id="rim" x1="0" x2="1" y1="0" y2="1">
      <stop offset="0%" stop-color="#f472b6"/>
      <stop offset="52%" stop-color="#f59e0b"/>
      <stop offset="100%" stop-color="hsl(227 88% 62%)"/>
    </linearGradient>
    <filter id="glow" x="-40%" y="-40%" width="180%" height="180%">
      <feGaussianBlur stdDeviation="3.2" result="blur"/>
      <feColorMatrix in="blur" type="matrix" values="0 0 0 0 0.1 0 0 0 0 0.8 0 0 0 0 1 0 0 0 .9 0" result="blueGlow"/>
      <feMerge><feMergeNode in="blueGlow"/><feMergeNode in="SourceGraphic"/></feMerge>
    </filter>
    <pattern id="grid" width="24" height="24" patternUnits="userSpaceOnUse">
      <path d="M24 0H0v24" fill="none" stroke="#38bdf8" stroke-opacity=".08" stroke-width="1"/>
    </pattern>
  </defs>
  <rect x="18" y="18" width="220" height="220" rx="32" fill="url(#bg)"/>
  <rect x="18" y="18" width="220" height="220" rx="32" fill="url(#grid)" opacity=".7"/>
  <rect x="23" y="23" width="210" height="210" rx="27" fill="none" stroke="url(#rim)" stroke-width="3" opacity=".86"/>
  <circle cx="128" cy="128" r="93" fill="none" stroke="#22d3ee" stroke-width="2" stroke-dasharray="2 9" opacity=".4"/>
  <circle cx="156.3" cy="216.6" r="3.4" fill="#22d3ee" opacity=".75"/><circle cx="98.9" cy="216.3" r="3.4" fill="#22d3ee" opacity=".75"/><circle cx="52.5" cy="182.3" r="3.4" fill="#22d3ee" opacity=".75"/><circle cx="35.0" cy="127.6" r="3.4" fill="#22d3ee" opacity=".75"/><circle cx="53.0" cy="73.0" r="3.4" fill="#22d3ee" opacity=".75"/><circle cx="99.7" cy="39.4" r="3.4" fill="#22d3ee" opacity=".75"/><circle cx="157.1" cy="39.7" r="3.4" fill="#22d3ee" opacity=".75"/><circle cx="203.5" cy="73.7" r="3.4" fill="#22d3ee" opacity=".75"/><circle cx="221.0" cy="128.4" r="3.4" fill="#22d3ee" opacity=".75"/><circle cx="203.0" cy="183.0" r="3.4" fill="#22d3ee" opacity=".75"/>
  <g filter="url(#glow)">
        <path d="M73 90h70l32 32v30H41v-30Z" fill="rgba(34,211,238,.08)" stroke="#f472b6" stroke-width="8" stroke-linejoin="round"/>
        <path d="M100 152v34h64v-34" fill="none" stroke="#f472b6" stroke-width="8"/>
        <path d="M148 58 210 120M169 37l62 62" stroke="#f59e0b" stroke-width="10" stroke-linecap="round"/>
        </g>
  
        <path d="M42 210h172" stroke="#22d3ee" stroke-width="4" stroke-linecap="round" opacity=".65"/>
        <circle cx="84" cy="210" r="5" fill="#f472b6"/><circle cx="128" cy="210" r="5" fill="#f59e0b"/><circle cx="172" cy="210" r="5" fill="hsl(227 88% 62%)"/>
        
</svg>