<svg xmlns="http://www.w3.org/2000/svg" viewBox="0 0 256 256" width="256" height="256" role="img" aria-labelledby="title desc">
  <title id="title">Hapa Avatar Dashboard node glyph icon</title>
  <desc id="desc">glyph icon for Hapa Avatar Dashboard (hapa_node). Category: avatar. Symbol: avatar.</desc>
  <defs>
    <radialGradient id="bg" cx="50%" cy="43%" r="68%">
      <stop offset="0%" stop-color="#0f2742"/>
      <stop offset="55%" stop-color="#07111f"/>
      <stop offset="100%" stop-color="#020617"/>
    </radialGradient>
    <linearGradient id="rim" x1="0" x2="1" y1="0" y2="1">
      <stop offset="0%" stop-color="#e879f9"/>
      <stop offset="52%" stop-color="#22d3ee"/>
      <stop offset="100%" stop-color="hsl(27 88% 62%)"/>
    </linearGradient>
    <filter id="glow" x="-40%" y="-40%" width="180%" height="180%">
      <feGaussianBlur stdDeviation="3.2" result="blur"/>
      <feColorMatrix in="blur" type="matrix" values="0 0 0 0 0.1 0 0 0 0 0.8 0 0 0 0 1 0 0 0 .9 0" result="blueGlow"/>
      <feMerge><feMergeNode in="blueGlow"/><feMergeNode in="SourceGraphic"/></feMerge>
    </filter>
    <pattern id="grid" width="24" height="24" patternUnits="userSpaceOnUse">
      <path d="M24 0H0v24" fill="none" stroke="#38bdf8" stroke-opacity=".08" stroke-width="1"/>
    </pattern>
  </defs>
  <rect x="28" y="28" width="200" height="200" rx="44" fill="url(#bg)"/>
  <rect x="28" y="28" width="200" height="200" rx="44" fill="url(#grid)" opacity=".7"/>
  <rect x="33" y="33" width="190" height="190" rx="39" fill="none" stroke="url(#rim)" stroke-width="3" opacity=".86"/>
  <circle cx="128" cy="128" r="93" fill="none" stroke="#22d3ee" stroke-width="2" stroke-dasharray="2 9" opacity=".4"/>
  <circle cx="220.0" cy="141.9" r="3.4" fill="#fbbf24" opacity=".75"/><circle cx="183.2" cy="202.8" r="3.4" fill="#fbbf24" opacity=".75"/><circle cx="114.1" cy="220.0" r="3.4" fill="#fbbf24" opacity=".75"/><circle cx="53.2" cy="183.2" r="3.4" fill="#fbbf24" opacity=".75"/><circle cx="36.0" cy="114.1" r="3.4" fill="#fbbf24" opacity=".75"/><circle cx="72.8" cy="53.2" r="3.4" fill="#fbbf24" opacity=".75"/><circle cx="141.9" cy="36.0" r="3.4" fill="#fbbf24" opacity=".75"/><circle cx="202.8" cy="72.8" r="3.4" fill="#fbbf24" opacity=".75"/>
  <g filter="url(#glow)">
        <circle cx="128" cy="94" r="30" fill="none" stroke="#e879f9" stroke-width="10"/>
        <path d="M70 190c12-42 42-60 58-60s46 18 58 60" fill="none" stroke="#e879f9" stroke-width="11" stroke-linecap="round"/>
        <path d="M128 43v-22M92 53 77 36M164 53l15-17" stroke="#22d3ee" stroke-width="6" stroke-linecap="round"/>
        </g>
  
</svg>